<?xml version="1.0" encoding="UTF-8" standalone="no"?>
<!-- Created with Inkscape (http://www.inkscape.org/) -->

<svg
   xmlns:dc="http://purl.org/dc/elements/1.1/"
   xmlns:cc="http://creativecommons.org/ns#"
   xmlns:rdf="http://www.w3.org/1999/02/22-rdf-syntax-ns#"
   xmlns:svg="http://www.w3.org/2000/svg"
   xmlns="http://www.w3.org/2000/svg"
   xmlns:sodipodi="http://sodipodi.sourceforge.net/DTD/sodipodi-0.dtd"
   xmlns:inkscape="http://www.inkscape.org/namespaces/inkscape"
   width="367.09335"
   height="349.54492"
   id="svg4187"
   version="1.1"
   inkscape:version="0.48.5 r10040"
   sodipodi:docname="Nouveau document 20">
  <defs
     id="defs4189" />
  <sodipodi:namedview
     id="base"
     pagecolor="#ffffff"
     bordercolor="#666666"
     borderopacity="1.0"
     inkscape:pageopacity="0.0"
     inkscape:pageshadow="2"
     inkscape:zoom="1.2421569"
     inkscape:cx="197.07522"
     inkscape:cy="193.34389"
     inkscape:document-units="px"
     inkscape:current-layer="layer1"
     showgrid="false"
     fit-margin-top="3"
     fit-margin-left="3"
     fit-margin-right="3"
     fit-margin-bottom="3"
     inkscape:window-width="1276"
     inkscape:window-height="764"
     inkscape:window-x="0"
     inkscape:window-y="16"
     inkscape:window-maximized="0" />
  <metadata
     id="metadata4192">
    <rdf:RDF>
      <cc:Work
         rdf:about="">
        <dc:format>image/svg+xml</dc:format>
        <dc:type
           rdf:resource="http://purl.org/dc/dcmitype/StillImage" />
        <dc:title></dc:title>
      </cc:Work>
    </rdf:RDF>
  </metadata>
  <g
     inkscape:label="Calque 1"
     inkscape:groupmode="layer"
     id="layer1"
     transform="translate(-176.45332,-234.73257)">
    <g
       id="g4857">
      <path
         transform="matrix(1.248,0,0,1.248,173.4289,378.15329)"
         d="m 54.148251,38.581181 c 0,9.117455 -7.391158,16.508613 -16.508614,16.508613 -9.117456,0 -16.508614,-7.391158 -16.508614,-16.508613 0,-9.117456 7.391158,-16.508614 16.508614,-16.508614 9.117456,0 16.508614,7.391158 16.508614,16.508614 z"
         sodipodi:ry="16.508614"
         sodipodi:rx="16.508614"
         sodipodi:cy="38.581181"
         sodipodi:cx="37.639637"
         id="path3115-5"
         style="fill:#000000;fill-opacity:1;stroke:none"
         sodipodi:type="arc" />
      <path
         transform="matrix(2.232,0,0,2.232,342.28692,340.18941)"
         d="m 54.148251,38.581181 c 0,9.117455 -7.391158,16.508613 -16.508614,16.508613 -9.117456,0 -16.508614,-7.391158 -16.508614,-16.508613 0,-9.117456 7.391158,-16.508614 16.508614,-16.508614 9.117456,0 16.508614,7.391158 16.508614,16.508614 z"
         sodipodi:ry="16.508614"
         sodipodi:rx="16.508614"
         sodipodi:cy="38.581181"
         sodipodi:cx="37.639637"
         id="path3115-2"
         style="fill:#000000;fill-opacity:1;stroke:none"
         sodipodi:type="arc" />
      <path
         transform="matrix(1.624,0,0,1.624,445.46971,363.64677)"
         d="m 54.148251,38.581181 c 0,9.117455 -7.391158,16.508613 -16.508614,16.508613 -9.117456,0 -16.508614,-7.391158 -16.508614,-16.508613 0,-9.117456 7.391158,-16.508614 16.508614,-16.508614 9.117456,0 16.508614,7.391158 16.508614,16.508614 z"
         sodipodi:ry="16.508614"
         sodipodi:rx="16.508614"
         sodipodi:cy="38.581181"
         sodipodi:cx="37.639637"
         id="path3115-6"
         style="fill:#000000;fill-opacity:1;stroke:none"
         sodipodi:type="arc" />
      <rect
         ry="16.382"
         y="404.00732"
         x="284.8443"
         height="44.590557"
         width="77.145218"
         id="rect3183"
         style="fill:#000000;fill-opacity:1;stroke:none" />
      <path
         transform="matrix(1.248,0,0,1.248,173.56097,216.0284)"
         d="m 54.148251,38.581181 c 0,9.117455 -7.391158,16.508613 -16.508614,16.508613 -9.117456,0 -16.508614,-7.391158 -16.508614,-16.508613 0,-9.117456 7.391158,-16.508614 16.508614,-16.508614 9.117456,0 16.508614,7.391158 16.508614,16.508614 z"
         sodipodi:ry="16.508614"
         sodipodi:rx="16.508614"
         sodipodi:cy="38.581181"
         sodipodi:cx="37.639637"
         id="path3115"
         style="fill:#000000;fill-opacity:1;stroke:none"
         sodipodi:type="arc" />
      <path
         transform="matrix(1.488,0,0,1.488,370.42287,206.76892)"
         d="m 54.148251,38.581181 c 0,9.117455 -7.391158,16.508613 -16.508614,16.508613 -9.117456,0 -16.508614,-7.391158 -16.508614,-16.508613 0,-9.117456 7.391158,-16.508614 16.508614,-16.508614 9.117456,0 16.508614,7.391158 16.508614,16.508614 z"
         sodipodi:ry="16.508614"
         sodipodi:rx="16.508614"
         sodipodi:cy="38.581181"
         sodipodi:cx="37.639637"
         id="path3115-4"
         style="fill:#000000;fill-opacity:1;stroke:none"
         sodipodi:type="arc" />
      <path
         transform="matrix(0.77600003,0,0,0.77600003,477.12398,234.23872)"
         d="m 54.148251,38.581181 c 0,9.117455 -7.391158,16.508613 -16.508614,16.508613 -9.117456,0 -16.508614,-7.391158 -16.508614,-16.508613 0,-9.117456 7.391158,-16.508614 16.508614,-16.508614 9.117456,0 16.508614,7.391158 16.508614,16.508614 z"
         sodipodi:ry="16.508614"
         sodipodi:rx="16.508614"
         sodipodi:cy="38.581181"
         sodipodi:cx="37.639637"
         id="path3115-8"
         style="fill:#000000;fill-opacity:1;stroke:none"
         sodipodi:type="arc" />
      <rect
         ry="19.431215"
         y="237.73257"
         x="277.61682"
         height="52.890289"
         width="91.504425"
         id="rect3183-1"
         style="fill:#000000;fill-opacity:1;stroke:none" />
      <rect
         ry="17.840351"
         y="320.05444"
         x="321.82361"
         height="48.560074"
         width="84.012802"
         id="rect3183-5"
         style="fill:#000000;fill-opacity:1;stroke:none" />
      <rect
         ry="26.702633"
         y="307.99323"
         x="179.45332"
         height="72.682533"
         width="125.74657"
         id="rect3183-4"
         style="fill:#000000;fill-opacity:1;stroke:none" />
      <rect
         ry="23.660063"
         y="312.13403"
         x="429.12799"
         height="64.400894"
         width="111.41868"
         id="rect3183-0"
         style="fill:#000000;fill-opacity:1;stroke:none" />
      <text
         sodipodi:linespacing="125%"
         id="text3226"
         y="524.77203"
         x="178.95366"
         style="font-size:64px;font-style:normal;font-variant:normal;font-stretch:normal;line-height:125%;letter-spacing:0px;word-spacing:0px;fill:#000000;fill-opacity:1;stroke:none;font-family:URW Gothic;-inkscape-font-specification:URW Gothic Book"
         xml:space="preserve"><tspan
           y="524.77203"
           x="178.95366"
           id="tspan3228"
           sodipodi:role="line">Laboratoire</tspan></text>
      <text
         sodipodi:linespacing="125%"
         id="text4087"
         y="572.4455"
         x="181.08272"
         style="font-size:46px;font-style:normal;font-variant:normal;font-stretch:normal;line-height:125%;letter-spacing:0px;word-spacing:0px;fill:#000000;fill-opacity:1;stroke:none;font-family:URW Gothic;-inkscape-font-specification:URW Gothic Book"
         xml:space="preserve"><tspan
           y="572.4455"
           x="181.08272"
           id="tspan4089"
           sodipodi:role="line">Ouvert Lyonnais</tspan></text>
    </g>
  </g>
</svg>
