<?xml version="1.0" encoding="UTF-8" standalone="no"?>
<!-- Created with Inkscape (http://www.inkscape.org/) -->

<!--
  Highly inspired by the TupperVim Logo.
  MIT License.
-->

<svg
   xmlns:dc="http://purl.org/dc/elements/1.1/"
   xmlns:cc="http://creativecommons.org/ns#"
   xmlns:rdf="http://www.w3.org/1999/02/22-rdf-syntax-ns#"
   xmlns:svg="http://www.w3.org/2000/svg"
   xmlns="http://www.w3.org/2000/svg"
   xmlns:sodipodi="http://sodipodi.sourceforge.net/DTD/sodipodi-0.dtd"
   xmlns:inkscape="http://www.inkscape.org/namespaces/inkscape"
   width="581"
   height="160.93225"
   id="svg3894"
   version="1.1"
   inkscape:version="0.92.0 r15299"
   sodipodi:docname="TupperRust.svg">
  <defs
     id="defs3896" />
  <sodipodi:namedview
     id="base"
     pagecolor="#ffffff"
     bordercolor="#666666"
     borderopacity="1.0"
     inkscape:pageopacity="0.0"
     inkscape:pageshadow="2"
     inkscape:zoom="3.959798"
     inkscape:cx="205.40899"
     inkscape:cy="83.033465"
     inkscape:document-units="px"
     inkscape:current-layer="svg3894"
     showgrid="false"
     inkscape:window-width="1916"
     inkscape:window-height="969"
     inkscape:window-x="0"
     inkscape:window-y="90"
     inkscape:window-maximized="0" />
  <metadata
     id="metadata3899">
    <rdf:RDF>
      <cc:Work
         rdf:about="">
        <dc:format>image/svg+xml</dc:format>
        <dc:type
           rdf:resource="http://purl.org/dc/dcmitype/StillImage" />
        <dc:title />
      </cc:Work>
    </rdf:RDF>
  </metadata>
  <g
     inkscape:label="Calque 1"
     inkscape:groupmode="layer"
     id="layer1"
     transform="translate(-9.5038396,-929.30405)">
    <text
       xml:space="preserve"
       style="font-style:normal;font-weight:normal;font-size:22.16790771px;line-height:125%;font-family:Sans;letter-spacing:0px;word-spacing:0px;fill:#000000;fill-opacity:1;stroke:none;stroke-width:0.87126029"
       x="4.4860864"
       y="1003.0056"
       id="text3093"
       transform="scale(0.96753682,1.0335524)"><tspan
         sodipodi:role="line"
         id="tspan3095"
         x="4.4860864"
         y="1003.0056"
         style="font-style:oblique;font-variant:normal;font-weight:bold;font-stretch:normal;font-size:79.80446625px;line-height:125%;font-family:Verdana;-inkscape-font-specification:Verdana;text-align:start;writing-mode:lr-tb;text-anchor:start;opacity:1;fill:#b3b3b3;stroke:#000000;stroke-width:2.7155683;stroke-miterlimit:4;stroke-dasharray:none;stroke-opacity:1">Tupper</tspan></text>
    <text
       xml:space="preserve"
       style="font-style:normal;font-weight:normal;font-size:22.16790771px;line-height:125%;font-family:Sans;letter-spacing:0px;word-spacing:0px;fill:#000000;fill-opacity:1;stroke:none;stroke-width:0.87126029"
       x="464.52545"
       y="1003.0056"
       id="text3093-5"
       transform="scale(0.96753682,1.0335524)"><tspan
         sodipodi:role="line"
         id="tspan3095-3"
         x="464.52545"
         y="1003.0056"
         style="font-style:oblique;font-variant:normal;font-weight:bold;font-stretch:normal;font-size:79.80446625px;line-height:125%;font-family:Verdana;-inkscape-font-specification:Verdana;text-align:start;writing-mode:lr-tb;text-anchor:start;opacity:1;fill:#b7410e;fill-opacity:1;stroke:#852b00;stroke-width:2.7155683;stroke-miterlimit:4;stroke-dasharray:none;stroke-opacity:1">ust</tspan></text>
  </g>
  <path
     inkscape:connector-curvature="0"
     d="m 372.89489,26.603884 a 3.966645,4.1888832 0 0 1 7.93329,0 3.966645,4.1888832 0 0 1 -7.93329,0 m -47.32018,37.926337 a 3.9666411,4.1888791 0 0 1 7.93328,0 3.9666411,4.1888791 0 0 1 -7.93328,0 m 94.63909,0.19543 a 3.9666411,4.1888791 0 0 1 7.93328,0 3.9666411,4.1888791 0 0 1 -7.93328,0 m -83.15651,5.73881 c 1.82506,-0.85583 2.64954,-3.11469 1.8391,-5.04606 l -1.75997,-4.20235 h 6.92119 v 32.94497 h -13.96363 a 48.836392,51.572535 0 0 1 -1.58131,-19.68692 z m 28.95214,0.81003 v -9.71071 h 16.48171 c 0.85129,0 6.01124,1.03912 6.01124,5.11345 0,3.3829 -3.95771,4.59592 -7.2122,4.59592 z m -22.50188,52.284159 a 3.9666411,4.1888791 0 0 1 7.93328,0 3.9666411,4.1888791 0 0 1 -7.93328,0 m 58.77341,0.19542 a 3.9666465,4.1888848 0 0 1 7.93329,0 3.9666465,4.1888848 0 0 1 -7.93329,0 m 1.2265,-9.49911 c -1.95397,-0.44207 -3.87602,0.87066 -4.29465,2.93814 l -1.99098,9.81179 a 48.836392,51.572535 0 0 1 -40.72698,-0.20621 l -1.9897,-9.81178 c -0.41861,-2.06479 -2.34067,-3.38022 -4.29336,-2.93679 l -8.20258,1.85993 a 48.836392,51.572535 0 0 1 -4.24103,-5.27924 h 39.91145 c 0.45179,0 0.75299,-0.0863 0.75299,-0.52024 V 95.201501 c 0,-0.43399 -0.3012,-0.52024 -0.75299,-0.52024 h -11.67276 v -9.45059 h 12.62485 c 1.15248,0 6.16181,0.34772 7.76353,7.10951 0.50158,2.0796 1.60299,8.844079 2.356,11.009949 0.75044,2.42869 3.80584,7.28067 7.06159,7.28067 h 20.60662 a 48.836392,51.572535 0 0 1 -4.52309,5.52857 z m 22.16239,-39.364399 a 48.836392,51.572535 0 0 1 0.10341,8.95326 h -5.01063 c -0.50158,0 -0.70323,0.34772 -0.70323,0.8666 v 2.43003 c 0,5.71998 -3.0541,6.96396 -5.73043,7.28068 -2.54871,0.30325 -5.37437,-1.12673 -5.72279,-2.77372 -1.50345,-8.93033 -4.00876,-10.83744 -7.96519,-14.13275 4.9098,-3.2926 10.0187,-8.14998 10.0187,-14.65164 0,-7.02054 -4.55755,-11.4426 -7.66398,-13.61116 -4.35846,-3.03383 -9.18403,-3.64168 -10.48582,-3.64168 h -51.82031 a 48.836392,51.572535 0 0 1 27.32234,-16.283795 l 6.10822,6.767176 c 1.38093,1.527023 3.66799,1.583635 5.11274,0.123989 l 6.8344,-6.903296 a 48.836392,51.572535 0 0 1 33.43312,25.145396 l -4.6788,11.15958 c -0.80787,1.93135 0.0166,4.19022 1.84037,5.04605 z m 11.66893,0.1806 -0.15955,-1.72516 4.8192,-4.74686 c 0.98017,-0.965 0.61388,-2.90713 -0.63942,-3.40042 l -6.16054,-2.43274 -0.48244,-1.67933 3.84285,-5.63638 c 0.78363,-1.14561 0.0638,-2.97453 -1.25585,-3.20365 l -6.49621,-1.11596 -0.78107,-1.5405 2.72994,-6.327805 c 0.559,-1.288464 -0.47988,-2.936788 -1.82251,-2.882875 l -6.59321,0.242591 -1.04143,-1.334289 1.51493,-6.781996 c 0.3063,-1.377426 -1.01718,-2.776415 -2.32152,-2.452938 l -6.42091,1.598455 -1.26606,-1.099786 0.231,-6.962597 c 0.0511,-1.409771 -1.5111,-2.510902 -2.72866,-1.925968 l -5.99081,2.884235 -1.45877,-0.826185 -1.05929,-6.861513 c -0.21441,-1.390901 -1.94759,-2.151045 -3.03241,-1.326209 l -5.34119,4.058144 -1.58767,-0.508109 -2.30367,-6.507048 c -0.46712,-1.326209 -2.30749,-1.707628 -3.21874,-0.67793 l -4.49501,5.093234 -1.63364,-0.168472 -3.47144,-5.923461 c -0.70195,-1.199519 -2.5819,-1.199519 -3.28129,0 l -3.47145,5.923461 -1.63489,0.168472 -4.49629,-5.093234 c -0.91126,-1.029698 -2.75164,-0.648279 -3.21875,0.67793 l -2.30367,6.507048 -1.58895,0.508109 -5.3399,-4.058144 c -1.08484,-0.827531 -2.81929,-0.06469 -3.03369,1.326209 l -1.0593,6.861513 -1.45879,0.826185 -5.99079,-2.884235 c -1.21756,-0.587628 -2.77971,0.516197 -2.72866,1.925968 l 0.22973,6.962597 -1.26606,1.099786 -6.42091,-1.598455 c -1.30434,-0.320778 -2.62911,1.075512 -2.32281,2.452938 l 1.51238,6.781996 -1.03889,1.334289 -6.59319,-0.242591 c -1.32987,-0.04044 -2.37769,1.594411 -1.82378,2.882875 l 2.73121,6.327805 -0.78236,1.5405 -6.4962,1.11596 c -1.31966,0.22643 -2.03437,2.05804 -1.25584,3.20365 l 3.84284,5.63638 -0.48243,1.67933 -6.16182,2.43274 c -1.25075,0.49329 -1.61704,2.43542 -0.63941,3.40042 l 4.82045,4.74686 -0.15953,1.72516 -5.60792,3.66593 c -1.13588,0.74129 -1.13588,2.72656 0,3.46514 l 5.60792,3.66594 0.15953,1.72515 -4.82045,4.74821 c -0.97763,0.96231 -0.61134,2.90309 0.63941,3.39907 l 6.16182,2.432739 0.48243,1.67932 -3.84284,5.63774 c -0.78108,1.14829 -0.0625,2.97858 1.25712,3.2023 l 6.49492,1.11597 0.78236,1.5432 -2.73121,6.32508 c -0.55647,1.28579 0.49391,2.9395 1.82378,2.8829 l 6.59065,-0.24395 1.04143,1.33699 -1.51238,6.78334 c -0.3063,1.37473 1.01847,2.77102 2.32281,2.44755 l 6.42091,-1.5971 1.26606,1.09709 -0.22973,6.96393 c -0.0511,1.40978 1.5111,2.51226 2.72866,1.92462 l 5.99079,-2.88288 1.45879,0.82619 1.0593,6.85747 c 0.2144,1.39629 1.94885,2.15104 3.03369,1.32889 l 5.33734,-4.06083 1.59023,0.51081 2.30367,6.50435 c 0.46711,1.32081 2.30749,1.71032 3.21874,0.67523 l 4.49629,-5.09053 1.6349,0.1725 3.47146,5.92212 c 0.69939,1.19412 2.57934,1.19683 3.28129,0 l 3.47144,-5.92212 1.63363,-0.1725 4.49501,5.09053 c 0.91126,1.03509 2.75163,0.64558 3.21875,-0.67523 l 2.30365,-6.50435 1.59023,-0.51081 5.33864,4.06083 c 1.08483,0.82215 2.81799,0.0648 3.03241,-1.32889 l 1.0593,-6.85747 1.45877,-0.82619 5.99081,2.88288 c 1.21756,0.58764 2.77716,-0.51215 2.72866,-1.92462 l -0.22973,-6.96393 1.26479,-1.09709 6.42089,1.5971 c 1.30435,0.32347 2.62784,-1.07282 2.32154,-2.44755 l -1.51238,-6.78334 1.03888,-1.33699 6.5932,0.24395 c 1.32988,0.0566 2.38152,-1.59711 1.82251,-2.8829 l -2.72994,-6.32508 0.78108,-1.5432 6.49621,-1.11597 c 1.32221,-0.22372 2.03947,-2.05401 1.25585,-3.2023 l -3.84285,-5.63774 0.48243,-1.67932 6.16054,-2.432739 c 1.2533,-0.49598 1.61959,-2.43676 0.63941,-3.39907 l -4.81919,-4.74821 0.15954,-1.72515 5.60793,-3.66594 c 1.13587,-0.73858 1.13714,-2.72385 10e-4,-3.46514 z"
     id="path3728"
     style="stroke-width:1.31153321" />
</svg>
